<svg width="54" height="13" viewBox="0 0 54 13" fill="none" xmlns="http://www.w3.org/2000/svg">
<path d="M22.0369 0.362054L19.5081 12.0776L20.5494 12.3024L23.0782 0.586826L22.0369 0.362054Z" fill="black"/>
<path d="M41.5938 0.769224L40.5432 0.945312L41.8466 8.72172L42.8972 8.54563L41.5938 0.769224Z" fill="black"/>
<path d="M26.9571 1.51501C28.623 1.51501 29.9728 2.8654 29.9728 4.53063H30.873C30.873 2.36775 29.12 0.614746 26.9571 0.614746V1.51501ZM23.9415 4.53129C23.9415 2.8654 25.2919 1.51567 26.9571 1.51567V0.615406C24.7943 0.615406 23.0413 2.36841 23.0413 4.53129H23.9415ZM26.9571 7.54691C25.2913 7.54691 23.9415 6.19651 23.9415 4.53129H23.0413C23.0413 6.69416 24.7943 8.44717 26.9571 8.44717V7.54691ZM29.9728 4.53129C29.9728 6.19717 28.6224 7.54691 26.9571 7.54691V8.44717C29.12 8.44717 30.873 6.69416 30.873 4.53129H29.9728Z" fill="black"/>
<path d="M36.3413 1.5238C38.0072 1.5238 39.357 2.87419 39.357 4.53942H40.2572C40.2572 2.37654 38.5042 0.623535 36.3413 0.623535V1.5238ZM33.3251 4.53942C33.3251 2.87353 34.6755 1.5238 36.3407 1.5238V0.623535C34.1778 0.623535 32.4248 2.37654 32.4248 4.53942H33.3251ZM36.3413 7.55569C34.6755 7.55569 33.3257 6.2053 33.3257 4.54008H32.4255C32.4255 6.70295 34.1785 8.45596 36.3413 8.45596V7.55569ZM39.357 4.53942C39.357 6.2053 38.0066 7.55503 36.3413 7.55503V8.4553C38.5042 8.4553 40.2572 6.70229 40.2572 4.53942H39.357Z" fill="black"/>
<path d="M30.2171 4.16395C30.5379 4.6187 30.5379 4.61936 30.5379 4.61936C30.5379 4.61936 30.5379 4.61936 30.5372 4.61936C30.5372 4.61936 30.5366 4.61936 30.5366 4.62002C30.5359 4.62002 30.5359 4.62068 30.5359 4.62068C30.5353 4.62068 30.5353 4.62134 30.5359 4.62068C30.5366 4.62068 30.5379 4.61936 30.5412 4.61738C30.5471 4.61342 30.5577 4.60682 30.5729 4.59692C30.6033 4.57844 30.6508 4.55072 30.7128 4.51904C30.8382 4.45568 31.0125 4.38176 31.2131 4.33622C31.6045 4.24711 32.0691 4.26559 32.5107 4.66028L33.2526 3.82998C32.4685 3.12904 31.6005 3.10594 30.9663 3.24983C30.6541 3.32045 30.3927 3.43199 30.2099 3.52506C30.1175 3.57192 30.0436 3.61482 29.9908 3.64716C29.9644 3.66366 29.9426 3.67686 29.9274 3.68742C29.9195 3.6927 29.9129 3.69732 29.9083 3.70062C29.9056 3.7026 29.9036 3.70392 29.9016 3.70524C29.901 3.7059 29.8997 3.70656 29.899 3.70722C29.8984 3.70722 29.8983 3.70788 29.8977 3.70788H29.897C29.8964 3.7092 29.8957 3.7092 30.2171 4.16395Z" fill="black"/>
<path d="M2.98886 0.321654L0 7.83301L0.940069 8.20707L3.92893 0.695719L2.98886 0.321654Z" fill="black"/>
<path d="M3.81763 2.40822L5.14888 4.93806L6.04453 4.46681L4.71327 1.93696L3.81763 2.40822ZM8.21598 1.8373L9.93401 8.91466L10.9174 8.67574L9.19941 1.59837L8.21598 1.8373ZM5.9475 5.06742L9.05816 2.08283L8.35722 1.35285L5.24656 4.33745L5.9475 5.06742ZM8.70769 1.71784L9.19941 1.59837L8.99216 0.743652L8.35788 1.35285L8.70769 1.71784ZM5.59703 4.70243L5.14954 4.93806L5.46239 5.53274L5.9475 5.06742L5.59703 4.70243Z" fill="black"/>
<path d="M13.3486 0.375746L12.3372 0.404785L12.5666 8.39637L13.578 8.36733L13.3486 0.375746Z" fill="black"/>
<path d="M15.0123 7.11219L18.5183 2.29407L17.6999 1.69873L14.1938 6.51686L15.0123 7.11219ZM17.6035 1.9799L17.393 8.70943L18.4048 8.74111L18.6153 2.01158L17.6035 1.9799ZM18.1097 1.99574L18.6153 2.01158L18.6668 0.370117L17.7005 1.69807L18.1097 1.99574Z" fill="black"/>
<path d="M47.4619 4.11796L44.8978 7.95596L45.7393 8.51829L48.3035 4.68029L47.4619 4.11796ZM44.4734 1.12082L47.4943 4.72385L48.2698 4.07374L45.2489 0.470703L44.4734 1.12082ZM47.8824 4.39912L48.3035 4.68029L48.514 4.3648L48.2705 4.0744L47.8824 4.39912Z" fill="black"/>
<path d="M50.9845 3.8908L54.0001 7.38559L53.2338 8.04693L50.2182 4.55214L50.9845 3.8908ZM53.5843 0.550454L51.0261 4.4967L50.1766 3.94624L52.7349 0L53.5843 0.550454ZM50.6017 4.22147L50.2189 4.55214L49.9707 4.26503L50.1773 3.94624L50.6017 4.22147Z" fill="black"/>
<path d="M49.1576 0.28368L48.1477 0.345703L48.644 8.42609L49.6539 8.36407L49.1576 0.28368Z" fill="black"/>
</svg>
